<svg width="1200" height="630" viewBox="0 0 1200 630" fill="none" xmlns="http://www.w3.org/2000/svg">
<rect width="1200" height="630" fill="#0D1117"/>
<path d="M233.098 158C144.137 158 72 230.125 72 319.098C72 390.276 118.159 450.662 182.169 471.964C190.22 473.455 193.176 468.469 193.176 464.214C193.176 460.373 193.026 447.682 192.958 434.221C148.139 443.966 138.682 415.213 138.682 415.213C131.354 396.592 120.795 391.642 120.795 391.642C106.179 381.643 121.897 381.848 121.897 381.848C138.074 382.985 146.592 398.45 146.592 398.45C160.96 423.078 184.279 415.957 193.472 411.842C194.917 401.429 199.093 394.323 203.7 390.3C167.918 386.226 130.302 372.412 130.302 310.684C130.302 293.097 136.596 278.725 146.902 267.444C145.229 263.385 139.715 247.001 148.462 224.811C148.462 224.811 161.99 220.481 192.776 241.324C205.625 237.754 219.407 235.965 233.098 235.904C246.789 235.965 260.581 237.754 273.455 241.324C304.204 220.481 317.713 224.811 317.713 224.811C326.482 247.001 320.965 263.385 319.293 267.444C329.621 278.725 335.872 293.096 335.872 310.684C335.872 372.559 298.185 386.184 262.313 390.171C268.091 395.171 273.239 404.975 273.239 420.004C273.239 441.559 273.052 458.908 273.052 464.214C273.052 468.501 275.952 473.525 284.119 471.943C348.093 450.617 394.194 390.252 394.194 319.098C394.194 230.125 322.067 158 233.098 158Z" fill="white"/>
<path d="M602.356 345.949C602.356 357.691 602.06 369.454 602.51 381.176C602.693 386.143 600.762 388.503 596.633 390.445C579.699 398.386 561.887 400.91 543.42 399.459C530.921 398.437 518.841 396.045 507.835 389.658C491.484 380.205 482.93 365.295 479.22 347.512C474.233 323.844 474.621 300.124 481.724 276.864C489.276 252.092 505.873 237.181 531.647 233.175C550.032 230.256 568.832 231.358 586.751 236.405C588.703 236.946 590.553 237.846 592.474 238.551C595.192 239.573 595.959 241.351 595.233 244.161C593.435 251.07 591.707 257.999 590.123 264.969C589.347 268.464 587.783 269.21 584.349 268.157C571.616 264.243 558.184 263.141 544.983 264.928C531.105 266.747 521.08 273.86 516.603 287.258C510.143 306.283 510.197 326.917 516.757 345.908C521.488 360.001 532.086 366.981 547.089 367.216C552.53 367.463 557.983 367.213 563.379 366.47C565.831 366.071 566.915 365.335 566.863 362.668C566.72 354.329 566.68 345.98 566.863 337.651C566.945 334.462 565.576 334.012 562.929 334.094C557.993 334.247 553.047 334.023 548.121 334.166C544.728 334.268 543.103 333.144 543.195 329.495C543.379 322.342 543.338 315.188 543.195 308.034C543.134 304.662 544.605 303.599 547.814 303.619C564.329 303.711 580.844 303.742 597.349 303.619C601.109 303.619 602.458 304.886 602.387 308.668C602.254 321.095 602.356 333.522 602.356 345.949Z" fill="white"/>
<path d="M884.316 317.645C884.316 341.978 884.203 366.321 884.418 390.654C884.418 395.427 882.926 396.949 878.286 396.786C870.294 396.49 862.282 396.52 854.29 396.786C850.059 396.929 848.649 395.498 848.69 391.237C848.884 372.003 848.69 352.77 848.915 333.537C848.976 329.204 847.617 328.192 843.468 328.274C829.508 328.529 815.548 328.458 801.567 328.274C798.256 328.274 797.214 329.163 797.244 332.586C797.408 352.004 797.244 371.421 797.408 390.787C797.408 395.181 796.202 396.919 791.654 396.766C783.315 396.5 774.976 396.602 766.637 396.766C763.213 396.817 761.793 395.744 761.803 392.075C761.885 342.203 761.885 292.335 761.803 242.47C761.803 238.831 763.254 237.666 766.637 237.707C775.15 237.799 783.663 237.881 792.186 237.707C796.274 237.605 797.439 239.373 797.408 243.216C797.275 259.567 797.469 275.918 797.265 292.27C797.265 295.99 798.042 297.216 801.976 297.145C816.1 296.889 830.233 296.93 844.357 297.145C847.924 297.145 848.946 296.235 848.905 292.638C848.71 276.286 848.905 259.935 848.731 243.584C848.67 239.077 850.213 237.574 854.638 237.717C862.63 237.973 870.642 237.993 878.634 237.717C883.202 237.554 884.449 239.332 884.418 243.696C884.224 268.284 884.305 292.965 884.316 317.645Z" fill="white"/>
<path d="M1049.63 388.945C1047.11 396.692 1047.11 396.692 1038.8 396.692C1035.04 396.692 1031.27 396.395 1027.55 396.753C1022.85 397.203 1021.73 395.108 1021.8 390.826C1022 379.431 1021.87 368.026 1021.87 356.631C1021.87 319.022 1021.93 281.414 1021.77 243.806C1021.77 239.146 1023.15 237.46 1027.9 237.674C1036.08 237.981 1044.25 237.848 1052.43 237.674C1056.14 237.603 1057.54 238.993 1057.54 242.784C1057.37 257.408 1057.54 272.053 1057.42 286.677C1057.42 290.622 1057.55 292.339 1062.26 290.081C1072.65 285.104 1083.83 284.082 1095.17 285.615C1111.42 287.812 1122.35 298.43 1126.44 316.979C1130.32 334.861 1129.79 353.418 1124.9 371.051C1119.14 392.512 1104.67 401.096 1080.08 399.482C1069.15 398.855 1058.61 395.208 1049.63 388.945V388.945ZM1056.78 342.354C1056.78 349.508 1056.87 356.661 1056.73 363.815C1056.68 366.227 1057.6 367.443 1059.8 368.373C1065.44 370.808 1071.57 371.902 1077.7 371.572C1086.12 371.163 1089.97 368.107 1091.94 359.758C1093.65 351.76 1094.17 343.555 1093.5 335.405C1092.06 312.124 1078.51 309.355 1060.44 316.294C1060.29 316.372 1060.13 316.441 1059.97 316.498C1057.41 317.183 1056.71 318.879 1056.77 321.455C1056.93 328.404 1056.81 335.374 1056.81 342.354H1056.78Z" fill="white"/>
<path d="M979.569 389.32C969.922 394.43 960.52 398.201 950.239 399.366C941.422 400.435 932.48 399.741 923.934 397.322C910.699 393.541 902.472 383.771 902.064 368.605C901.328 343.056 901.747 317.507 901.634 291.958C901.634 289.29 902.902 288.33 905.385 288.33C914.746 288.33 924.111 288.33 933.479 288.33C937.72 288.33 937.291 291.324 937.291 294.053C937.291 314.144 937.291 334.243 937.291 354.348C937.291 369.678 943.361 374.45 958.496 370.822C959.518 370.587 960.469 370.301 961.44 369.995C969.35 367.45 969.36 367.44 969.36 359.029C969.36 337.414 969.462 315.78 969.288 294.165C969.288 289.801 970.423 288.033 975.042 288.248C983.218 288.575 991.393 288.483 999.569 288.248C1003.24 288.166 1004.79 289.27 1004.78 293.163C1004.7 326.03 1004.7 358.893 1004.78 391.752C1004.78 395.625 1003.22 396.862 999.559 396.658C995.649 396.376 991.723 396.397 987.817 396.719C982.502 397.373 979.058 396.106 979.569 389.32Z" fill="white"/>
<path d="M685.157 343.627C685.157 336.995 685.157 330.342 685.157 323.719C685.096 315.901 686.179 316.933 678.525 316.831C675.97 316.831 673.415 316.739 670.87 316.831C667.804 316.944 666.629 315.533 666.711 312.508C666.854 307.405 666.854 302.295 666.711 297.179C666.639 294.512 667.529 292.938 670.267 292.611C670.94 292.514 671.604 292.361 672.25 292.151C676.42 290.843 682.275 291.66 684.514 288.359C686.496 285.365 685.168 280.184 685.209 275.912C685.209 271.149 685.372 266.377 685.209 261.604C685.076 258.61 685.842 257.261 689.123 257.322C698.136 257.472 707.157 257.472 716.184 257.322C719.465 257.261 720.19 258.641 720.119 261.604C719.945 267.9 720.119 274.195 720.119 280.5C720.119 288.165 720.119 288.165 728.07 288.165C732.331 288.165 736.583 288.278 740.834 288.165C744.36 288.043 745.678 289.463 745.566 293.009C745.361 299.294 745.341 305.6 745.566 311.895C745.709 315.789 744.043 317.005 740.456 316.893C734.845 316.739 729.214 316.954 723.614 316.801C720.977 316.729 720.068 317.577 720.098 320.275C720.221 333.561 720.098 346.846 720.201 360.132C720.262 366.57 723.9 370.535 730.492 371.23C734.233 371.518 737.992 371.518 741.733 371.23C744.462 371.097 745.913 371.884 745.821 374.868C745.712 381 745.712 387.132 745.821 393.264C745.821 395.563 744.86 396.575 742.755 397.137C730.267 400.366 717.778 400.755 705.556 396.411C691.494 391.404 686.22 380.06 685.515 366.141C685.127 358.67 685.444 351.169 685.444 343.658L685.157 343.627Z" fill="white"/>
<path d="M656.711 342.256C656.711 358.433 656.609 374.611 656.783 390.779C656.783 395.193 655.301 396.91 650.855 396.767C643.027 396.532 635.189 396.594 627.35 396.767C623.13 396.849 621.127 395.388 621.137 390.86C621.239 358.341 621.239 325.819 621.137 293.294C621.137 289.584 622.424 288.092 626.247 288.184C634.763 288.354 643.279 288.354 651.796 288.184C655.618 288.092 656.824 289.574 656.783 293.294C656.63 309.563 656.711 325.915 656.711 342.256Z" fill="white"/>
<path d="M658.142 260.313C658.149 262.866 657.647 265.395 656.663 267.751C655.68 270.107 654.236 272.244 652.416 274.034C650.596 275.825 648.436 277.234 646.064 278.179C643.692 279.123 641.155 279.585 638.602 279.536C627.79 279.536 618.858 270.808 618.95 260.333C619.042 249.858 627.923 241.294 638.837 241.376C643.905 241.34 648.78 243.312 652.397 246.861C656.015 250.409 658.08 255.246 658.142 260.313V260.313Z" fill="white"/>
</svg>
