<svg width="640" height="176" viewBox="0 0 640 176" fill="none" xmlns="http://www.w3.org/2000/svg">
<path d="M0 12C0 5.37258 5.37258 0 12 0H628C634.627 0 640 5.37258 640 12V164C640 170.627 634.627 176 628 176H12C5.37259 176 0 170.627 0 164V12Z" fill="url(#paint0_linear_1_163)"/>
<path d="M277.077 85.8176L255.683 64.425C255.39 64.1318 255.042 63.8991 254.659 63.7404C254.276 63.5817 253.865 63.5 253.45 63.5C253.036 63.5 252.625 63.5817 252.242 63.7404C251.859 63.8991 251.511 64.1318 251.218 64.425L246.777 68.8681L252.412 74.5025C253.074 74.2775 253.786 74.2424 254.468 74.4011C255.149 74.5598 255.772 74.906 256.267 75.4005C256.765 75.8986 257.112 76.5267 257.269 77.2129C257.427 77.8991 257.388 78.6158 257.157 79.281L262.589 84.7116C263.255 84.4805 263.972 84.4416 264.658 84.5993C265.344 84.757 265.973 85.1049 266.47 85.6032C266.819 85.9518 267.096 86.3657 267.284 86.8212C267.473 87.2768 267.57 87.765 267.57 88.258C267.57 88.7511 267.473 89.2393 267.284 89.6948C267.096 90.1504 266.819 90.5642 266.47 90.9128C265.765 91.617 264.81 92.0126 263.813 92.0126C262.817 92.0126 261.861 91.617 261.156 90.9128C260.633 90.3883 260.276 89.7206 260.131 88.9938C259.986 88.2669 260.059 87.5134 260.342 86.8281L255.276 81.7638V95.0936C255.81 95.3577 256.275 95.7454 256.63 96.2246C256.985 96.7038 257.22 97.2607 257.317 97.8492C257.414 98.4376 257.37 99.0407 257.187 99.6084C257.004 100.176 256.689 100.692 256.268 101.114C255.919 101.463 255.505 101.739 255.05 101.928C254.594 102.117 254.106 102.214 253.613 102.214C253.12 102.214 252.631 102.117 252.176 101.928C251.72 101.739 251.307 101.463 250.958 101.114C250.609 100.765 250.333 100.351 250.144 99.8959C249.955 99.4403 249.858 98.952 249.858 98.4589C249.858 97.9658 249.955 97.4775 250.144 97.022C250.333 96.5664 250.609 96.1525 250.958 95.8039C251.309 95.4518 251.727 95.1729 252.187 94.9832V81.5308C251.729 81.3422 251.313 81.065 250.962 80.7151C250.612 80.3653 250.334 79.9496 250.145 79.4921C249.955 79.0345 249.858 78.5441 249.859 78.0489C249.86 77.5537 249.959 77.0636 250.15 76.6067L244.594 71.0502L229.923 85.7173C229.332 86.3097 229 87.1124 229 87.9493C229 88.7862 229.332 89.5889 229.923 90.1812L251.318 111.576C251.911 112.167 252.713 112.499 253.55 112.499C254.387 112.499 255.189 112.167 255.782 111.576L277.077 90.2815C277.668 89.6891 278 88.8864 278 88.0495C278 87.2126 277.668 86.4099 277.077 85.8176Z" fill="#F03C2E"/>
<path d="M321.781 83.3424C321.628 82.7741 321.402 82.2735 321.105 81.8406C320.807 81.3986 320.442 81.0243 320.009 80.7176C319.576 80.4109 319.08 80.1809 318.521 80.0276C317.961 79.8652 317.348 79.784 316.68 79.784C315.337 79.784 314.173 80.1087 313.19 80.7582C312.216 81.4076 311.462 82.3547 310.93 83.5994C310.398 84.8352 310.132 86.337 310.132 88.1049C310.132 89.8818 310.389 91.3971 310.903 92.6509C311.417 93.9047 312.162 94.8608 313.136 95.5192C314.11 96.1777 315.291 96.5069 316.68 96.5069C317.907 96.5069 318.944 96.3085 319.792 95.9116C320.649 95.5057 321.299 94.9329 321.741 94.1933C322.183 93.4537 322.404 92.5832 322.404 91.582L323.648 91.7309H316.91V86.8466H328.857V90.5132C328.857 92.9936 328.33 95.1178 327.274 96.8857C326.228 98.6536 324.785 100.011 322.945 100.958C321.114 101.905 319.008 102.379 316.626 102.379C313.984 102.379 311.661 101.806 309.658 100.661C307.656 99.515 306.096 97.8824 304.977 95.7627C303.859 93.6341 303.299 91.1085 303.299 88.186C303.299 85.913 303.638 83.8971 304.314 82.1382C304.991 80.3703 305.933 78.873 307.142 77.6463C308.36 76.4196 309.767 75.4906 311.363 74.8592C312.969 74.2278 314.696 73.9121 316.545 73.9121C318.151 73.9121 319.644 74.1421 321.024 74.6021C322.413 75.0621 323.639 75.7115 324.704 76.5504C325.777 77.3892 326.647 78.3859 327.315 79.5405C327.982 80.695 328.397 81.9623 328.56 83.3424H321.781ZM334.107 102V81.2182H340.723V102H334.107ZM337.422 78.7963C336.493 78.7963 335.694 78.4897 335.027 77.8763C334.359 77.2539 334.026 76.5053 334.026 75.6304C334.026 74.7645 334.359 74.0248 335.027 73.4115C335.694 72.7891 336.493 72.4779 337.422 72.4779C338.36 72.4779 339.158 72.7891 339.816 73.4115C340.484 74.0248 340.818 74.7645 340.818 75.6304C340.818 76.5053 340.484 77.2539 339.816 77.8763C339.158 78.4897 338.36 78.7963 337.422 78.7963ZM356.664 81.2182V86.0889H343.554V81.2182H356.664ZM346.301 76.2392H352.917V95.4651C352.917 95.871 352.98 96.2002 353.106 96.4528C353.241 96.6963 353.435 96.8722 353.688 96.9804C353.94 97.0797 354.243 97.1293 354.594 97.1293C354.847 97.1293 355.113 97.1067 355.393 97.0616C355.681 97.0075 355.898 96.9624 356.042 96.9263L357.043 101.702C356.728 101.793 356.281 101.905 355.704 102.041C355.136 102.176 354.455 102.262 353.661 102.298C352.109 102.37 350.779 102.189 349.67 101.756C348.569 101.314 347.726 100.629 347.139 99.6999C346.562 98.7709 346.283 97.6028 346.301 96.1957V76.2392ZM367.103 74.2909V102H360.487V74.2909H367.103ZM375.359 109.793C374.566 109.793 373.817 109.73 373.113 109.604C372.41 109.487 371.806 109.329 371.3 109.13L372.762 104.327C373.411 104.544 373.997 104.67 374.52 104.706C375.053 104.742 375.508 104.656 375.887 104.449C376.275 104.25 376.573 103.894 376.78 103.38L377.037 102.758L369.65 81.2182H376.577L380.406 96.0469H380.622L384.506 81.2182H391.473L383.64 103.989C383.261 105.125 382.724 106.127 382.03 106.993C381.344 107.867 380.456 108.553 379.364 109.049C378.282 109.545 376.947 109.793 375.359 109.793ZM412.154 87.5637L406.079 87.726C406.016 87.2931 405.844 86.9097 405.565 86.576C405.285 86.2332 404.92 85.9672 404.469 85.7777C404.027 85.5793 403.513 85.4801 402.926 85.4801C402.16 85.4801 401.506 85.6334 400.965 85.9401C400.432 86.2468 400.171 86.6617 400.18 87.1848C400.171 87.5907 400.333 87.9425 400.667 88.2402C401.01 88.5378 401.618 88.7768 402.493 88.9572L406.498 89.7149C408.573 90.1118 410.115 90.7702 411.125 91.6903C412.145 92.6103 412.659 93.828 412.668 95.3433C412.659 96.7685 412.235 98.0087 411.396 99.064C410.566 100.119 409.43 100.94 407.987 101.526C406.543 102.104 404.893 102.392 403.035 102.392C400.067 102.392 397.726 101.784 396.013 100.566C394.308 99.3391 393.334 97.6975 393.09 95.641L399.625 95.4786C399.769 96.2363 400.144 96.8136 400.748 97.2104C401.352 97.6073 402.124 97.8058 403.062 97.8058C403.91 97.8058 404.6 97.6479 405.132 97.3322C405.664 97.0165 405.934 96.5971 405.944 96.0739C405.934 95.6049 405.727 95.2306 405.321 94.951C404.915 94.6623 404.279 94.4368 403.413 94.2745L399.787 93.5844C397.704 93.2056 396.152 92.5066 395.133 91.4873C394.114 90.4591 393.609 89.1512 393.618 87.5637C393.609 86.1746 393.979 84.9885 394.727 84.0053C395.476 83.0131 396.54 82.2555 397.92 81.7323C399.3 81.2092 400.928 80.9476 402.805 80.9476C405.619 80.9476 407.838 81.5384 409.461 82.72C411.085 83.8926 411.982 85.5071 412.154 87.5637Z" fill="white"/>
<defs>
<linearGradient id="paint0_linear_1_163" x1="0" y1="0" x2="604.091" y2="259.57" gradientUnits="userSpaceOnUse">
<stop stop-color="#171717"/>
<stop offset="1" stop-color="#262626"/>
</linearGradient>
</defs>
</svg>
